<svg width="48" height="48" viewBox="0 0 48 48" fill="none" xmlns="http://www.w3.org/2000/svg">
<path opacity="0.4" d="M40.2844 21.5912C43.215 19.5276 43.8788 15.5436 41.7686 12.6832C36.99 6.20556 28.0002 1.83413 20.984 7.88446C18.3267 10.1759 16.2119 12.9873 14.7982 16.2002L12.002 22.5548V23C12.002 28.5408 18.8547 34.9952 24.8112 36.9392C24.9388 36.9808 25.0686 37.0098 25.2014 37.0292C25.9714 36.462 26.8166 36.0076 27.8108 35.7656L37.7048 33.3564C42.7882 32.1186 44.0496 25.6486 39.7856 22.682L39.133 22.2408C39.6666 21.9726 40.0158 21.7804 40.2844 21.5912Z" fill="#F682A5"/>
<path d="M11.9652 22.4926C11.7911 27.9376 18.2073 34.6488 24.2232 36.7586M11.9652 22.4926C11.356 23.538 5.13444 28.5256 5.02566 30.6382C4.49852 34.8338 11.6266 42.7158 17.1227 42.985C19.1751 43.2762 22.022 39.8224 24.9078 37.2564C26.4972 35.843 28.7878 35.516 37.9566 33.2408C41.2838 32.6624 45.281 26.9232 39.3554 22.0584M11.9652 22.4926C13.8216 18.0902 17.031 9.57964 23.325 6.2188C25.881 4.76654 32.5198 3.4294 39.025 9.61378C41.263 11.496 45.1424 15.6189 41.5316 20.3692C39.1242 23.1748 35.4842 22.3626 35.1306 27.2148" stroke="#F682A5" stroke-width="3" stroke-linecap="round" stroke-linejoin="round"/>
</svg>
